<?xml version="1.0" encoding="UTF-8" standalone="no"?>
<svg width="532px" height="350px" viewBox="0 0 532 350" version="1.1" xmlns="http://www.w3.org/2000/svg" xmlns:xlink="http://www.w3.org/1999/xlink" xmlns:sketch="http://www.bohemiancoding.com/sketch/ns">
    <!-- Generator: Sketch 3.1.1 (8761) - http://www.bohemiancoding.com/sketch -->
    <title>Slice 2</title>
    <desc>Created with Sketch.</desc>
    <defs></defs>
    <g id="Page-1" stroke="none" stroke-width="1" fill="none" fill-rule="evenodd" sketch:type="MSPage">
        <g id="cloud" sketch:type="MSLayerGroup" transform="translate(10.000000, 10.000000)" fill="#00AFFF">
            <path d="M400,65.4 C394.688,65.4 389.438,65.7832031 384.208,66.5496094 C354.334,24.9511219 307.188,0 256,0 C204.812,0 157.688,24.9511219 127.792,66.5496094 C122.562,65.7832031 117.312,65.4 112,65.4 C50.25,65.4 0,116.749219 0,179.85 C0,242.950781 50.25,294.3 112,294.3 C125.688,294.3 139.084,291.745313 151.709,286.806591 C180.666,312.608934 217.5,327 256,327 C294.542,327 331.333,312.608934 360.291,286.806591 C372.916,291.745313 386.312,294.3 400,294.3 C461.75,294.3 512,242.950781 512,179.85 C512,116.749219 461.75,65.4 400,65.4 L400,65.4 Z" id="Shape" sketch:type="MSShapeGroup"></path>
        </g>
    </g>
</svg>