<?xml version="1.0" encoding="UTF-8" standalone="no"?>
<svg width="547px" height="530px" viewBox="0 0 547 530" version="1.1" xmlns="http://www.w3.org/2000/svg" xmlns:xlink="http://www.w3.org/1999/xlink" xmlns:sketch="http://www.bohemiancoding.com/sketch/ns">
    <!-- Generator: Sketch 3.1.1 (8761) - http://www.bohemiancoding.com/sketch -->
    <title>Slice 2</title>
    <desc>Created with Sketch.</desc>
    <defs></defs>
    <g id="Page-1" stroke="none" stroke-width="1" fill="none" fill-rule="evenodd" sketch:type="MSPage">
        <g id="lightning" sketch:type="MSLayerGroup" transform="translate(18.000000, 8.000000)" fill="#53FFD2">
            <path d="M512,134.833 C512,85.687 472,45.709 422.833,45.709 C420.437,45.709 418.062,45.792 415.687,45.979 C392.562,17.146 357.709,0 320,0 C282.312,0 247.438,17.146 224.312,45.979 C221.937,45.792 219.541,45.709 217.124,45.709 C168,45.709 128,85.688 128,134.833 C128,139.979 128.688,144.958 129.5,149.875 C128.958,150.583 128.312,151.229 127.792,151.958 C122.563,151.208 117.313,150.833 112,150.833 C50.25,150.833 0,201.083 0,262.833 C0,324.584 50.25,374.833 112,374.833 C125.688,374.833 139.084,372.334 151.709,367.5 C170.063,383.5 191.813,394.438 214.916,400.708 L192,416 L224,448 L192,512 L288,448 L256,416 L260.812,406.417 C297.562,405.292 332.562,391.688 360.291,367.5 C372.916,372.334 386.312,374.833 400,374.833 C461.75,374.833 512,324.584 512,262.833 C512,237.167 502.958,213.75 488.334,194.833 C502.916,178.958 512,158.021 512,134.833 L512,134.833 Z" id="Shape" sketch:type="MSShapeGroup"></path>
        </g>
    </g>
</svg>