<?xml version="1.0" encoding="UTF-8" standalone="no"?>
<svg width="542px" height="491px" viewBox="0 0 542 491" version="1.1" xmlns="http://www.w3.org/2000/svg" xmlns:xlink="http://www.w3.org/1999/xlink" xmlns:sketch="http://www.bohemiancoding.com/sketch/ns">
    <!-- Generator: Sketch 3.1.1 (8761) - http://www.bohemiancoding.com/sketch -->
    <title>Slice 2</title>
    <desc>Created with Sketch.</desc>
    <defs></defs>
    <g id="Page-1" stroke="none" stroke-width="1" fill="none" fill-rule="evenodd" sketch:type="MSPage">
        <g id="mooncloud" sketch:type="MSLayerGroup" transform="translate(12.000000, 10.000000)" fill="#052377">
            <path d="M435.062,223.166 C439.937,219.541 444.874,215.979 449.291,211.562 C462.499,198.333 472.562,182.229 479.083,163.708 C481.166,157.916 479.687,151.416 475.311,147.083 C470.957,142.708 464.499,141.229 458.688,143.291 C423.292,155.791 385,147.291 358.792,121.041 C332.543,94.791 324.001,56.52 336.543,21.145 C338.585,15.333 337.126,8.874 332.751,4.499 C328.418,0.166 321.939,-1.334 316.126,0.708 C297.584,7.291 281.501,17.333 268.292,30.541 C234.751,64.041 224.313,111.541 235.813,154.333 C192.563,159.854 153.688,182.833 127.792,218.125 C122.563,217.375 117.313,217 112,217 C50.25,217 -1.42108547e-14,267.249 -1.42108547e-14,329 C-1.42108547e-14,390.75 50.25,441 112,441 C125.688,441 139.084,438.499 151.709,433.666 C180.665,458.916 217.499,473 255.999,473 C294.541,473 331.332,458.916 360.29,433.666 C372.915,438.499 386.311,441 399.999,441 C461.749,441 511.999,390.75 511.999,329 C512,279.562 479.583,237.979 435.062,223.166 L435.062,223.166 Z M290.916,53.167 C293.458,50.584 296.187,48.188 299.062,45.938 C296.812,81.917 309.791,117.313 336.166,143.667 C362.542,170.042 397.937,183 433.917,180.771 C420.125,198.355 401.125,209.292 380.791,213.959 C353.416,179.209 313.187,157.335 268.833,153.772 C256.562,119.813 263.75,80.333 290.916,53.167 L290.916,53.167 Z" id="Shape" sketch:type="MSShapeGroup"></path>
        </g>
    </g>
</svg>