<?xml version="1.0" encoding="UTF-8" standalone="no"?>
<svg width="494px" height="494px" viewBox="0 0 494 494" version="1.1" xmlns="http://www.w3.org/2000/svg" xmlns:xlink="http://www.w3.org/1999/xlink" xmlns:sketch="http://www.bohemiancoding.com/sketch/ns">
    <!-- Generator: Sketch 3.1.1 (8761) - http://www.bohemiancoding.com/sketch -->
    <title>Slice 2</title>
    <desc>Created with Sketch.</desc>
    <defs></defs>
    <g id="Page-1" stroke="none" stroke-width="1" fill="none" fill-rule="evenodd" sketch:type="MSPage">
        <g id="2" sketch:type="MSLayerGroup" transform="translate(-9.000000, -9.000000)">
            <g id="Grid_1_" sketch:type="MSShapeGroup" stroke="#A9CCDB">
                <g id="Layer_1_1_">
                    <g id="Grid">
                        <g id="Group">
                            <rect id="Rectangle-path" x="0" y="0" width="512" height="512"></rect>
                            <path d="M0,480 L512,480" id="Shape"></path>
                            <path d="M0,448 L512,448" id="Shape"></path>
                            <path d="M0,416 L512,416" id="Shape"></path>
                            <path d="M0,384 L512,384" id="Shape"></path>
                            <path d="M0,352 L512,352" id="Shape"></path>
                            <path d="M0,320 L512,320" id="Shape"></path>
                            <path d="M0,288 L512,288" id="Shape"></path>
                            <path d="M0,256 L512,256" id="Shape"></path>
                            <path d="M0,224 L512,224" id="Shape"></path>
                            <path d="M0,192 L512,192" id="Shape"></path>
                            <path d="M0,160 L512,160" id="Shape"></path>
                            <path d="M0,128 L512,128" id="Shape"></path>
                            <path d="M0,96 L512,96" id="Shape"></path>
                            <path d="M0,64 L512,64" id="Shape"></path>
                            <path d="M0,32 L512,32" id="Shape"></path>
                            <path d="M480,0 L480,512" id="Shape"></path>
                            <path d="M448,0 L448,512" id="Shape"></path>
                            <path d="M416,0 L416,512" id="Shape"></path>
                            <path d="M384,0 L384,512" id="Shape"></path>
                            <path d="M352,0 L352,512" id="Shape"></path>
                            <path d="M320,0 L320,512" id="Shape"></path>
                            <path d="M288,0 L288,512" id="Shape"></path>
                            <path d="M256,0 L256,512" id="Shape"></path>
                            <path d="M224,0 L224,512" id="Shape"></path>
                            <path d="M192,0 L192,512" id="Shape"></path>
                            <path d="M160,0 L160,512" id="Shape"></path>
                            <path d="M128,0 L128,512" id="Shape"></path>
                            <path d="M96,0 L96,512" id="Shape"></path>
                            <path d="M64,0 L64,512" id="Shape"></path>
                            <path d="M32,0 L32,512" id="Shape"></path>
                        </g>
                    </g>
                </g>
            </g>
            <path d="M256,144 C194.25,144 144,194.25 144,256 C144,317.75 194.25,368 256,368 C317.75,368 368,317.75 368,256 C368,194.25 317.75,144 256,144 L256,144 Z M256,336 C211.812,336 176,300.188 176,256 C176,211.812 211.812,176 256,176 C300.188,176 336,211.812 336,256 C336,300.188 300.188,336 256,336 L256,336 Z M256,112 C264.833,112 272,104.833 272,96 L272,64 C272,55.167 264.833,48 256,48 C247.167,48 240,55.167 240,64 L240,96 C240,104.833 247.167,112 256,112 L256,112 Z M256,400 C247.167,400 240,407.167 240,416 L240,448 C240,456.833 247.167,464 256,464 C264.833,464 272,456.833 272,448 L272,416 C272,407.167 264.833,400 256,400 L256,400 Z M380.438,154.167 L403.063,131.542 C409.313,125.292 409.313,115.167 403.063,108.917 C396.813,102.667 386.688,102.667 380.438,108.917 L357.813,131.542 C351.563,137.792 351.563,147.917 357.813,154.167 C364.062,160.417 374.188,160.417 380.438,154.167 L380.438,154.167 Z M131.562,357.834 L108.937,380.459 C102.687,386.708 102.687,396.833 108.937,403.083 C115.187,409.333 125.312,409.333 131.562,403.083 L154.187,380.459 C160.437,374.188 160.437,364.083 154.187,357.834 C147.938,351.583 137.812,351.562 131.562,357.834 L131.562,357.834 Z M112,256 C112,247.167 104.833,240 96,240 L64,240 C55.167,240 48,247.167 48,256 C48,264.833 55.167,272 64,272 L96,272 C104.833,272 112,264.833 112,256 L112,256 Z M448,240 L416,240 C407.167,240 400,247.167 400,256 C400,264.833 407.167,272 416,272 L448,272 C456.833,272 464,264.833 464,256 C464,247.167 456.833,240 448,240 L448,240 Z M131.541,154.167 C137.792,160.417 147.917,160.417 154.166,154.167 C160.417,147.917 160.417,137.792 154.166,131.542 L131.541,108.917 C125.291,102.667 115.167,102.667 108.916,108.917 C102.666,115.167 102.666,125.292 108.916,131.542 L131.541,154.167 L131.541,154.167 Z M380.459,357.812 C374.188,351.562 364.083,351.562 357.834,357.812 C351.583,364.062 351.563,374.187 357.834,380.437 L380.459,403.062 C386.708,409.312 396.833,409.312 403.083,403.062 C409.333,396.812 409.333,386.688 403.083,380.437 L380.459,357.812 L380.459,357.812 Z" id="Shape" fill="#0099FF" sketch:type="MSShapeGroup"></path>
        </g>
    </g>
</svg>